# xmcd
#
# Track frame offsets:
#	150
#	18281
#	33651
#	53901
#	72185
#	87848
#	106625
#	126526
#	144365
#	162064
#	179293
#	196996
#	210054
#	229238
#	246680
#	266044
#	283477
#	299926
#
# Disc length: 4320 seconds
#
# Revision: 1
# Processed by: cddbd v1.5.2PL0 Copyright (c) Steve Scherf et al.
# Submitted via: audiograbber 1.83.01
#
DISCID=1510de12
DTITLE=Miroslav Skoro - Sve Najbolje Vol 2
DYEAR=2007
DGENRE=Tamburasi
TTITLE0=Suza Krene Sama Od Sebe
TTITLE1=Nives
TTITLE2=Maria De La Lovrez
TTITLE3=Kada Sjever Zapuse
TTITLE4=Molio Sam Boga Za Te
TTITLE5=Milo Moje (Duza Verzija)
TTITLE6=Reci Brate Moj ( Duet Thompson)
TTITLE7=Tamo Gdje Je Dom
TTITLE8=Sude Mi (Gost Thompson)
TTITLE9=Cetir Vitra
TTITLE10=Ne Veruje Srce Pameti
TTITLE11=Ne Reci Ne
TTITLE12=Vrime
TTITLE13=Moja Vilo
TTITLE14=Golubica
TTITLE15=Nemoj Me Zaboraviti
TTITLE16=Heroji Ne Placu
TTITLE17=Svetinnja
EXTD=
EXTT0=
EXTT1=
EXTT2=
EXTT3=
EXTT4=
EXTT5=
EXTT6=
EXTT7=
EXTT8=
EXTT9=
EXTT10=
EXTT11=
EXTT12=
EXTT13=
EXTT14=
EXTT15=
EXTT16=
EXTT17=
PLAYORDER=
